<svg xmlns="http://www.w3.org/2000/svg" xmlns:xlink="http://www.w3.org/1999/xlink" id="Capa_1" x="0" y="0" version="1.1" viewBox="0 0 512 512" xml:space="preserve" style="enable-background:new 0 0 512 512"><path style="fill:#32d736" d="M257,0C116.3,0,0,114.3,0,255s116.3,257,257,257s255-116.3,255-257S397.7,0,257,0z"/><path style="fill:#10bb67" d="M512,255c0,140.7-114.3,257-255,257V0C397.7,0,512,114.3,512,255z"/><path style="fill:#e1e4fb" d="M405.5,188.699L257,337.5l-10.499,10.499c-12.001,11.7-30.901,11.7-42.601,0l-97.4-95.7	c-11.7-11.7-11.7-30.599,0-42.299c11.1-11.1,31.201-11.1,42.301,0l76.399,74.099l31.8-31.8L363.199,146.4	c11.1-11.1,31.201-11.1,42.301,0C416.901,157.8,417.499,176.999,405.5,188.699z"/><path style="fill:#c5c9f7" d="M405.5,188.699L257,337.5v-85.201L363.199,146.4c11.1-11.1,31.201-11.1,42.301,0	C416.901,157.8,417.499,176.999,405.5,188.699z"/></svg>